<svg xmlns:xlink="http://www.w3.org/1999/xlink" width="90" height="144" viewBox="0 0 90 144" fill="none" xmlns="http://www.w3.org/2000/svg" id="svg1115083425_922">
<path d="M0.671389 45.1346C0.65069 20.558 20.5572 0.617887 45.1339 0.597189V0.597189C69.7106 0.57649 89.6507 20.483 89.6714 45.0597L89.7543 143.56L0.754345 143.635L0.671389 45.1346Z" fill="#F6D6E1"></path>
<path d="M74.4288 48.7904L74.4925 124.478L16.3329 124.527L16.2691 48.8394C16.2556 32.7791 29.2641 19.7486 45.3245 19.7351C61.3848 19.7215 74.4152 32.7301 74.4288 48.7904Z" stroke="#F54E26" stroke-width="7px" fill="none"></path>
<path d="M47.9983 102.814C49.2133 96.4087 55.5805 83.2137 71.3294 81.6735" stroke="#F54E26" stroke-width="7px" fill="none"></path>
<path d="M28.2246 100.468C30.2821 88.524 41.752 63.6427 71.1712 59.6684" stroke="#F54E26" stroke-width="7px" fill="none"></path>
<path d="M15.5392 72.6904C20.7864 59.2959 39.1349 33.0367 70.5519 35.1557" stroke="#F54E26" stroke-width="7px" fill="none"></path>
<path d="M74.3824 104.189L16.8184 102.91" stroke="#F54E26" stroke-width="7px" fill="none"></path>
</svg>