<svg xmlns:xlink="http://www.w3.org/1999/xlink" width="131" height="178" viewBox="0 0 131 178" fill="none" xmlns="http://www.w3.org/2000/svg" id="svg1807928065_4934">
<path d="M36.5018 170.42L53.1734 91.5862C53.3689 90.6616 54.185 90 55.1301 90L77.6864 90C78.6421 90 79.4642 90.6761 79.6488 91.6138L95.0723 169.979C95.4101 171.696 93.5376 172.988 92.0528 172.063L80.456 164.842C79.7741 164.417 78.9044 164.442 78.2476 164.904L66.3527 173.278C65.612 173.799 64.6134 173.758 63.9185 173.177L54.58 165.368C53.9366 164.83 53.0257 164.751 52.2988 165.169L39.4568 172.567C37.9578 173.43 36.1439 172.112 36.5018 170.42Z" fill="#007656"></path>
<path d="M69.5975 2.34351L75.9091 9.52778C77.3483 11.1575 79.672 11.6883 81.6734 10.8435L90.4812 7.10561C93.2847 5.91695 96.5004 7.45697 97.31 10.3875L99.8736 19.5902C100.458 21.6835 102.325 23.1637 104.499 23.2683L114.063 23.7169C117.107 23.8589 119.333 26.6399 118.793 29.6303L117.099 39.0274C116.717 41.1655 117.751 43.311 119.663 44.3427L128.088 48.8805C130.772 50.3234 131.559 53.7921 129.775 56.2517L124.16 63.9892C122.886 65.746 122.886 68.1233 124.16 69.8876L129.775 77.6251C131.559 80.0846 130.764 83.5534 128.088 84.9962L119.663 89.5341C117.744 90.5657 116.709 92.7113 117.099 94.8494L118.793 104.246C119.333 107.237 117.107 110.018 114.063 110.16L104.499 110.608C102.325 110.713 100.458 112.193 99.8736 114.287L97.31 123.489C96.4929 126.42 93.2847 127.96 90.4812 126.771L81.6734 123.033C79.672 122.181 77.3408 122.712 75.9091 124.349L69.5975 131.533C67.5886 133.821 64.0205 133.821 62.0116 131.533L55.7 124.349C54.2608 122.719 51.937 122.188 49.9356 123.033L41.1279 126.771C38.3244 127.96 35.1086 126.42 34.2991 123.489L31.7355 114.287C31.1508 112.193 29.2843 110.713 27.1105 110.608L17.5456 110.16C14.5023 110.018 12.276 107.237 12.8157 104.246L14.5098 94.8494C14.8921 92.7113 13.8576 90.5657 11.9462 89.5341L3.52073 84.9962C0.837185 83.5534 0.050111 80.0846 1.83415 77.6251L7.44861 69.8876C8.72292 68.1308 8.72292 65.7535 7.44861 63.9892L1.83415 56.2517C0.050111 53.7921 0.844681 50.3234 3.52073 48.8805L11.9462 44.3427C13.8651 43.311 14.8996 41.1655 14.5098 39.0274L12.8157 29.6303C12.276 26.6399 14.5023 23.8589 17.5456 23.7169L27.1105 23.2683C29.2843 23.1637 31.1508 21.6835 31.7355 19.5902L34.2991 10.3875C35.1161 7.45697 38.3244 5.91695 41.1279 7.10561L49.9356 10.8435C51.937 11.6958 54.2683 11.165 55.7 9.52778L62.0116 2.34351C64.0205 0.0559071 67.5886 0.0559071 69.5975 2.34351V2.34351Z" fill="#5738AF"></path>
<path d="M69.2129 12.4489L74.5593 18.5161C75.7785 19.8924 77.7468 20.3407 79.4422 19.6273L86.903 16.4706C89.2778 15.4667 92.0018 16.7673 92.6876 19.2422L94.8591 27.014C95.3544 28.7817 96.9355 30.0318 98.7769 30.1202L106.879 30.499C109.457 30.6189 111.343 32.9675 110.886 35.4929L109.451 43.4289C109.127 45.2345 110.003 47.0465 111.622 47.9177L118.759 51.7499C121.032 52.9684 121.699 55.8979 120.188 57.975L115.432 64.5094C114.353 65.993 114.353 68.0007 115.432 69.4906L120.188 76.025C121.699 78.1021 121.026 81.0316 118.759 82.2501L111.622 86.0823C109.997 86.9535 109.12 88.7655 109.451 90.5711L110.886 98.5071C111.343 101.032 109.457 103.381 106.879 103.501L98.7769 103.88C96.9355 103.968 95.3544 105.218 94.8591 106.986L92.6876 114.758C91.9954 117.233 89.2778 118.533 86.903 117.529L79.4422 114.373C77.7468 113.653 75.7721 114.101 74.5593 115.484L69.2129 121.551C67.5112 123.483 64.4888 123.483 62.7871 121.551L57.4407 115.484C56.2215 114.108 54.2532 113.659 52.5578 114.373L45.097 117.529C42.7222 118.533 39.9982 117.233 39.3124 114.758L37.1408 106.986C36.6456 105.218 35.0645 103.968 33.2231 103.88L25.121 103.501C22.543 103.381 20.6572 101.032 21.1143 98.5071L22.5494 90.5711C22.8732 88.7655 21.9969 86.9535 20.3778 86.0823L13.2408 82.2501C10.9676 81.0316 10.3009 78.1021 11.8121 76.025L16.568 69.4906C17.6474 68.007 17.6474 65.9993 16.568 64.5094L11.8121 57.975C10.3009 55.8979 10.974 52.9684 13.2408 51.7499L20.3778 47.9177C22.0033 47.0465 22.8795 45.2345 22.5494 43.4289L21.1143 35.4929C20.6572 32.9675 22.543 30.6189 25.121 30.499L33.2231 30.1202C35.0645 30.0318 36.6456 28.7817 37.1408 27.014L39.3124 19.2422C40.0045 16.7673 42.7222 15.4667 45.097 16.4706L52.5578 19.6273C54.2532 20.347 56.2279 19.8988 57.4407 18.5161L62.7871 12.4489C64.4888 10.517 67.5112 10.517 69.2129 12.4489V12.4489Z" stroke="#714DD9" stroke-width="4px" stroke-miterlimit="10" fill="none"></path>
<path d="M65.0331 43.8378C66.1336 41.6083 69.3129 41.6083 70.4134 43.8378L75.4448 54.031C75.8815 54.9155 76.725 55.5289 77.7011 55.6716L88.9576 57.3169C91.4173 57.6764 92.3977 60.6999 90.6169 62.4344L82.4765 70.3632C81.7688 71.0524 81.4459 72.0458 81.6128 73.0194L83.5334 84.2171C83.9537 86.668 81.3811 88.5369 79.1802 87.3794L69.1196 82.0887C68.2455 81.629 67.2011 81.629 66.3269 82.0887L56.2663 87.3794C54.0654 88.5369 51.4928 86.668 51.9132 84.2171L53.8337 73.0194C54.0007 72.0458 53.6777 71.0524 52.9701 70.3632L44.8296 62.4344C43.0489 60.6999 44.0292 57.6764 46.4889 57.3169L57.7455 55.6716C58.7215 55.5289 59.5651 54.9155 60.0017 54.031L65.0331 43.8378Z" fill="#FFCCDE"></path>
</svg>