<svg xmlns:xlink="http://www.w3.org/1999/xlink" width="135" height="190" viewBox="0 0 135 190" fill="none" xmlns="http://www.w3.org/2000/svg" id="svg-767803032_1983">
<path d="M112.248 23.6045L120.515 31.8294L120.577 142.508L116.13 148.438V165.856H19.7756V148.438L15.5342 141.844L15.9814 31.7318L23.4812 24.3153L112.248 23.6045Z" fill="#F2EFE1"></path>
<rect x="30" y="38" width="79" height="63" fill="#007656"></rect>
<rect x="13.814" y="29.9561" width="4" height="115.127" fill="black"></rect>
<rect x="26.1941" y="38.3369" width="4" height="63.6785" fill="black"></rect>
<rect x="68" y="50" width="4" height="26" fill="#FFF6E8"></rect>
<rect x="52" y="50.7725" width="4" height="9" fill="#FFF6E8"></rect>
<rect x="83.0432" y="50.208" width="4" height="9" fill="#FFF6E8"></rect>
<rect x="107" y="35" width="4" height="77" transform="rotate(90 107 35)" fill="black"></rect>
<rect x="72" y="72.7861" width="4" height="9" transform="rotate(90 72 72.7861)" fill="#FFF6E8"></rect>
<rect x="78.2837" y="86.1152" width="4" height="19" transform="rotate(90 78.2837 86.1152)" fill="#FFF6E8"></rect>
<rect x="59.8394" y="81.5547" width="4" height="5" transform="rotate(90 59.8394 81.5547)" fill="#FFF6E8"></rect>
<rect x="83.6072" y="81.251" width="4" height="5" transform="rotate(90 83.6072 81.251)" fill="#FFF6E8"></rect>
<rect x="107" y="101" width="4" height="77" transform="rotate(90 107 101)" fill="black"></rect>
<rect x="107" y="38" width="4" height="63.4682" fill="black"></rect>
<rect x="119.063" y="30.2275" width="4" height="114.654" fill="black"></rect>
<rect x="17.8079" y="25.875" width="4.13227" height="4.11348" fill="black"></rect>
<rect x="114.69" y="25.8125" width="4.46854" height="4.41511" fill="black"></rect>
<rect x="21.8821" y="21.8936" width="92.9542" height="4" fill="black"></rect>
<path fill-rule="evenodd" clip-rule="evenodd" d="M114.966 149.242H21.7515V162.036H114.966V149.242ZM17.365 144.855V166.423H119.352V144.855H17.365Z" fill="black"></path>
<rect x="26.656" y="128.112" width="9" height="4" fill="black"></rect>
<rect x="79.4675" y="127" width="26" height="4" fill="black"></rect>
<rect x="95" y="126" width="11" height="6" fill="black"></rect>
</svg>